<svg width="1431" height="581" viewBox="0 0 1431 581" fill="none" xmlns="http://www.w3.org/2000/svg">
<path d="M1357.28 90.8367L1334.02 50.5354L1357.28 10.2341L1403.82 10.2341L1427.09 50.5354L1403.82 90.8367L1357.28 90.8367Z" fill="#FFFCE2" stroke="#EEBB44" stroke-width="6"/>
<path d="M97.2834 90.8369L74.0155 50.5356L97.2834 10.2344L143.819 10.2344L167.087 50.5356L143.819 90.8369L97.2834 90.8369Z" fill="#FFFCE2" stroke="#EEBB44" stroke-width="6"/>
<path d="M1287.28 130.837L1264.02 90.5354L1287.28 50.2341L1333.82 50.2341L1357.09 90.5354L1333.82 130.837L1287.28 130.837Z" fill="#FFFCE2" stroke="#EEBB44" stroke-width="6"/>
<path d="M27.2834 130.837L4.01549 90.5355L27.2834 50.2343L73.8193 50.2342L97.0873 90.5355L73.8193 130.837L27.2834 130.837Z" fill="#FFFCE2" stroke="#EEBB44" stroke-width="6"/>
<path d="M167.283 130.837L144.015 90.5355L167.283 50.2343L213.819 50.2342L237.087 90.5355L213.819 130.837L167.283 130.837Z" fill="#FFFCE2" stroke="#EEBB44" stroke-width="6"/>
<path d="M1077.28 170.837L1054.02 130.535L1077.28 90.2341L1123.82 90.2341L1147.09 130.535L1123.82 170.837L1077.28 170.837Z" fill="#FFFCE2" stroke="#EEBB44" stroke-width="6"/>
<path d="M1217.28 170.837L1194.02 130.535L1217.28 90.2341L1263.82 90.2341L1287.09 130.535L1263.82 170.837L1217.28 170.837Z" fill="#FFFCE2" stroke="#EEBB44" stroke-width="6"/>
<path d="M1357.28 170.837L1334.02 130.535L1357.28 90.2341L1403.82 90.2341L1427.09 130.535L1403.82 170.837L1357.28 170.837Z" fill="#FFFCE2" stroke="#EEBB44" stroke-width="6"/>
<path d="M97.2834 170.837L74.0155 130.536L97.2834 90.2343L143.819 90.2342L167.087 130.536L143.819 170.837L97.2834 170.837Z" fill="#FFFCE2" stroke="#EEBB44" stroke-width="6"/>
<path d="M237.283 170.837L214.015 130.536L237.283 90.2343L283.819 90.2342L307.087 130.536L283.819 170.837L237.283 170.837Z" fill="#FFFCE2" stroke="#EEBB44" stroke-width="6"/>
<path d="M1007.28 210.837L984.015 170.535L1007.28 130.234L1053.82 130.234L1077.09 170.535L1053.82 210.837L1007.28 210.837Z" fill="#FFFCE2" stroke="#EEBB44" stroke-width="6"/>
<path d="M1147.28 210.837L1124.02 170.535L1147.28 130.234L1193.82 130.234L1217.09 170.535L1193.82 210.837L1147.28 210.837Z" fill="#FFFCE2" stroke="#EEBB44" stroke-width="6"/>
<path d="M1287.28 210.837L1264.02 170.535L1287.28 130.234L1333.82 130.234L1357.09 170.535L1333.82 210.837L1287.28 210.837Z" fill="#FFFCE2" stroke="#EEBB44" stroke-width="6"/>
<path d="M27.2834 210.837L4.01549 170.536L27.2834 130.234L73.8193 130.234L97.0873 170.536L73.8193 210.837L27.2834 210.837Z" fill="#FFFCE2" stroke="#EEBB44" stroke-width="6"/>
<path d="M167.283 210.837L144.015 170.536L167.283 130.234L213.819 130.234L237.087 170.536L213.819 210.837L167.283 210.837Z" fill="#FFFCE2" stroke="#EEBB44" stroke-width="6"/>
<path d="M307.283 210.837L284.015 170.536L307.283 130.234L353.819 130.234L377.087 170.536L353.819 210.837L307.283 210.837Z" fill="#FFFCE2" stroke="#EEBB44" stroke-width="6"/>
<path d="M447.283 210.837L424.015 170.536L447.283 130.234L493.819 130.234L517.087 170.536L493.819 210.837L447.283 210.837Z" fill="#FFFCE2" stroke="#EEBB44" stroke-width="6"/>
<path d="M937.283 250.837L914.015 210.535L937.283 170.234L983.819 170.234L1007.09 210.535L983.819 250.837L937.283 250.837Z" fill="#FFFCE2" stroke="#EEBB44" stroke-width="6"/>
<path d="M1077.28 250.837L1054.02 210.535L1077.28 170.234L1123.82 170.234L1147.09 210.535L1123.82 250.837L1077.28 250.837Z" fill="#FFFCE2" stroke="#EEBB44" stroke-width="6"/>
<path d="M1217.28 250.837L1194.02 210.535L1217.28 170.234L1263.82 170.234L1287.09 210.535L1263.82 250.837L1217.28 250.837Z" fill="#FFFCE2" stroke="#EEBB44" stroke-width="6"/>
<path d="M1357.28 250.837L1334.02 210.535L1357.28 170.234L1403.82 170.234L1427.09 210.535L1403.82 250.837L1357.28 250.837Z" fill="#FFFCE2" stroke="#EEBB44" stroke-width="6"/>
<path d="M97.2834 250.837L74.0155 210.536L97.2834 170.234L143.819 170.234L167.087 210.536L143.819 250.837L97.2834 250.837Z" fill="#FFFCE2" stroke="#EEBB44" stroke-width="6"/>
<path d="M237.283 250.837L214.015 210.536L237.283 170.234L283.819 170.234L307.087 210.536L283.819 250.837L237.283 250.837Z" fill="#FFFCE2" stroke="#EEBB44" stroke-width="6"/>
<path d="M377.283 250.837L354.015 210.536L377.283 170.234L423.819 170.234L447.087 210.536L423.819 250.837L377.283 250.837Z" fill="#FFFCE2" stroke="#EEBB44" stroke-width="6"/>
<path d="M517.283 250.837L494.015 210.536L517.283 170.234L563.819 170.234L587.087 210.536L563.819 250.837L517.283 250.837Z" fill="#FFFCE2" stroke="#EEBB44" stroke-width="6"/>
<path d="M867.283 290.837L844.015 250.535L867.283 210.234L913.819 210.234L937.087 250.535L913.819 290.837L867.283 290.837Z" fill="#FFFCE2" stroke="#EEBB44" stroke-width="6"/>
<path d="M1007.28 290.837L984.015 250.535L1007.28 210.234L1053.82 210.234L1077.09 250.535L1053.82 290.837L1007.28 290.837Z" fill="#FFFCE2" stroke="#EEBB44" stroke-width="6"/>
<path d="M1147.28 290.837L1124.02 250.535L1147.28 210.234L1193.82 210.234L1217.09 250.535L1193.82 290.837L1147.28 290.837Z" fill="#FFFCE2" stroke="#EEBB44" stroke-width="6"/>
<path d="M1287.28 290.837L1264.02 250.535L1287.28 210.234L1333.82 210.234L1357.09 250.535L1333.82 290.837L1287.28 290.837Z" fill="#FFFCE2" stroke="#EEBB44" stroke-width="6"/>
<path d="M27.2834 290.837L4.01549 250.536L27.2834 210.234L73.8193 210.234L97.0873 250.536L73.8193 290.837L27.2834 290.837Z" fill="#FFFCE2" stroke="#EEBB44" stroke-width="6"/>
<path d="M167.283 290.837L144.015 250.536L167.283 210.234L213.819 210.234L237.087 250.536L213.819 290.837L167.283 290.837Z" fill="#FFFCE2" stroke="#EEBB44" stroke-width="6"/>
<path d="M307.283 290.837L284.015 250.536L307.283 210.234L353.819 210.234L377.087 250.536L353.819 290.837L307.283 290.837Z" fill="#FFFCE2" stroke="#EEBB44" stroke-width="6"/>
<path d="M447.283 290.837L424.015 250.536L447.283 210.234L493.819 210.234L517.087 250.536L493.819 290.837L447.283 290.837Z" fill="#FFFCE2" stroke="#EEBB44" stroke-width="6"/>
<path d="M587.283 290.837L564.015 250.536L587.283 210.234L633.819 210.234L657.087 250.536L633.819 290.837L587.283 290.837Z" fill="#FFFCE2" stroke="#EEBB44" stroke-width="6"/>
<path d="M797.283 330.837L774.015 290.535L797.283 250.234L843.819 250.234L867.087 290.535L843.819 330.837L797.283 330.837Z" fill="#FFFCE2" stroke="#EEBB44" stroke-width="6"/>
<path d="M937.283 330.837L914.015 290.535L937.283 250.234L983.819 250.234L1007.09 290.535L983.819 330.837L937.283 330.837Z" fill="#FFFCE2" stroke="#EEBB44" stroke-width="6"/>
<path d="M1077.28 330.837L1054.02 290.535L1077.28 250.234L1123.82 250.234L1147.09 290.535L1123.82 330.837L1077.28 330.837Z" fill="#FFFCE2" stroke="#EEBB44" stroke-width="6"/>
<path d="M1217.28 330.837L1194.02 290.535L1217.28 250.234L1263.82 250.234L1287.09 290.535L1263.82 330.837L1217.28 330.837Z" fill="#FFFCE2" stroke="#EEBB44" stroke-width="6"/>
<path d="M1357.28 330.837L1334.02 290.535L1357.28 250.234L1403.82 250.234L1427.09 290.535L1403.82 330.837L1357.28 330.837Z" fill="#FFFCE2" stroke="#EEBB44" stroke-width="6"/>
<path d="M97.2834 330.837L74.0155 290.536L97.2834 250.234L143.819 250.234L167.087 290.536L143.819 330.837L97.2834 330.837Z" fill="#FFFCE2" stroke="#EEBB44" stroke-width="6"/>
<path d="M237.283 330.837L214.015 290.536L237.283 250.234L283.819 250.234L307.087 290.536L283.819 330.837L237.283 330.837Z" fill="#FFFCE2" stroke="#EEBB44" stroke-width="6"/>
<path d="M377.283 330.837L354.015 290.536L377.283 250.234L423.819 250.234L447.087 290.536L423.819 330.837L377.283 330.837Z" fill="#FFFCE2" stroke="#EEBB44" stroke-width="6"/>
<path d="M517.283 330.837L494.015 290.536L517.283 250.234L563.819 250.234L587.087 290.536L563.819 330.837L517.283 330.837Z" fill="#FFFCE2" stroke="#EEBB44" stroke-width="6"/>
<path d="M657.283 330.837L634.015 290.536L657.283 250.234L703.819 250.234L727.087 290.536L703.819 330.837L657.283 330.837Z" fill="#FFFCE2" stroke="#EEBB44" stroke-width="6"/>
<path d="M727.283 370.837L704.015 330.535L727.283 290.234L773.819 290.234L797.087 330.535L773.819 370.837L727.283 370.837Z" fill="#FFFCE2" stroke="#EEBB44" stroke-width="6"/>
<path d="M867.283 370.837L844.015 330.535L867.283 290.234L913.819 290.234L937.087 330.535L913.819 370.837L867.283 370.837Z" fill="#FFFCE2" stroke="#EEBB44" stroke-width="6"/>
<path d="M1007.28 370.837L984.015 330.535L1007.28 290.234L1053.82 290.234L1077.09 330.535L1053.82 370.837L1007.28 370.837Z" fill="#FFFCE2" stroke="#EEBB44" stroke-width="6"/>
<path d="M1147.28 370.837L1124.02 330.535L1147.28 290.234L1193.82 290.234L1217.09 330.535L1193.82 370.837L1147.28 370.837Z" fill="#FFFCE2" stroke="#EEBB44" stroke-width="6"/>
<path d="M1287.28 370.837L1264.02 330.535L1287.28 290.234L1333.82 290.234L1357.09 330.535L1333.82 370.837L1287.28 370.837Z" fill="#FFFCE2" stroke="#EEBB44" stroke-width="6"/>
<path d="M27.2834 370.837L4.01549 330.536L27.2834 290.234L73.8193 290.234L97.0873 330.536L73.8193 370.837L27.2834 370.837Z" fill="#FFFCE2" stroke="#EEBB44" stroke-width="6"/>
<path d="M167.283 370.837L144.015 330.536L167.283 290.234L213.819 290.234L237.087 330.536L213.819 370.837L167.283 370.837Z" fill="#FFFCE2" stroke="#EEBB44" stroke-width="6"/>
<path d="M307.283 370.837L284.015 330.536L307.283 290.234L353.819 290.234L377.087 330.536L353.819 370.837L307.283 370.837Z" fill="#FFFCE2" stroke="#EEBB44" stroke-width="6"/>
<path d="M447.283 370.837L424.015 330.536L447.283 290.234L493.819 290.234L517.087 330.536L493.819 370.837L447.283 370.837Z" fill="#FFFCE2" stroke="#EEBB44" stroke-width="6"/>
<path d="M587.283 370.837L564.015 330.536L587.283 290.234L633.819 290.234L657.087 330.536L633.819 370.837L587.283 370.837Z" fill="#FFFCE2" stroke="#EEBB44" stroke-width="6"/>
<path d="M797.283 410.837L774.015 370.535L797.283 330.234L843.819 330.234L867.087 370.535L843.819 410.837L797.283 410.837Z" fill="#FFFCE2" stroke="#EEBB44" stroke-width="6"/>
<path d="M937.283 410.837L914.015 370.535L937.283 330.234L983.819 330.234L1007.09 370.535L983.819 410.837L937.283 410.837Z" fill="#FFFCE2" stroke="#EEBB44" stroke-width="6"/>
<path d="M1077.28 410.837L1054.02 370.535L1077.28 330.234L1123.82 330.234L1147.09 370.535L1123.82 410.837L1077.28 410.837Z" fill="#FFFCE2" stroke="#EEBB44" stroke-width="6"/>
<path d="M1217.28 410.837L1194.02 370.535L1217.28 330.234L1263.82 330.234L1287.09 370.535L1263.82 410.837L1217.28 410.837Z" fill="#FFFCE2" stroke="#EEBB44" stroke-width="6"/>
<path d="M1357.28 410.837L1334.02 370.535L1357.28 330.234L1403.82 330.234L1427.09 370.535L1403.82 410.837L1357.28 410.837Z" fill="#FFFCE2" stroke="#EEBB44" stroke-width="6"/>
<path d="M97.2834 410.837L74.0155 370.536L97.2834 330.234L143.819 330.234L167.087 370.536L143.819 410.837L97.2834 410.837Z" fill="#FFFCE2" stroke="#EEBB44" stroke-width="6"/>
<path d="M237.283 410.837L214.015 370.536L237.283 330.234L283.819 330.234L307.087 370.536L283.819 410.837L237.283 410.837Z" fill="#FFFCE2" stroke="#EEBB44" stroke-width="6"/>
<path d="M377.283 410.837L354.015 370.536L377.283 330.234L423.819 330.234L447.087 370.536L423.819 410.837L377.283 410.837Z" fill="#FFFCE2" stroke="#EEBB44" stroke-width="6"/>
<path d="M517.283 410.837L494.015 370.536L517.283 330.234L563.819 330.234L587.087 370.536L563.819 410.837L517.283 410.837Z" fill="#FFFCE2" stroke="#EEBB44" stroke-width="6"/>
<path d="M1007.28 450.837L984.015 410.535L1007.28 370.234L1053.82 370.234L1077.09 410.535L1053.82 450.837L1007.28 450.837Z" fill="#FFFCE2" stroke="#EEBB44" stroke-width="6"/>
<path d="M1147.28 450.837L1124.02 410.535L1147.28 370.234L1193.82 370.234L1217.09 410.535L1193.82 450.837L1147.28 450.837Z" fill="#FFFCE2" stroke="#EEBB44" stroke-width="6"/>
<path d="M1287.28 450.837L1264.02 410.535L1287.28 370.234L1333.82 370.234L1357.09 410.535L1333.82 450.837L1287.28 450.837Z" fill="#FFFCE2" stroke="#EEBB44" stroke-width="6"/>
<path d="M27.2834 450.837L4.01549 410.536L27.2834 370.234L73.8193 370.234L97.0873 410.536L73.8193 450.837L27.2834 450.837Z" fill="#FFFCE2" stroke="#EEBB44" stroke-width="6"/>
<path d="M167.283 450.837L144.015 410.536L167.283 370.234L213.819 370.234L237.087 410.536L213.819 450.837L167.283 450.837Z" fill="#FFFCE2" stroke="#EEBB44" stroke-width="6"/>
<path d="M307.283 450.837L284.015 410.536L307.283 370.234L353.819 370.234L377.087 410.536L353.819 450.837L307.283 450.837Z" fill="#FFFCE2" stroke="#EEBB44" stroke-width="6"/>
<path d="M447.283 450.837L424.015 410.536L447.283 370.234L493.819 370.234L517.087 410.536L493.819 450.837L447.283 450.837Z" fill="#FFFCE2" stroke="#EEBB44" stroke-width="6"/>
<path d="M1077.28 490.837L1054.02 450.535L1077.28 410.234L1123.82 410.234L1147.09 450.535L1123.82 490.837L1077.28 490.837Z" fill="#FFFCE2" stroke="#EEBB44" stroke-width="6"/>
<path d="M1217.28 490.837L1194.02 450.535L1217.28 410.234L1263.82 410.234L1287.09 450.535L1263.82 490.837L1217.28 490.837Z" fill="#FFFCE2" stroke="#EEBB44" stroke-width="6"/>
<path d="M1357.28 490.837L1334.02 450.535L1357.28 410.234L1403.82 410.234L1427.09 450.535L1403.82 490.837L1357.28 490.837Z" fill="#FFFCE2" stroke="#EEBB44" stroke-width="6"/>
<path d="M97.2834 490.837L74.0155 450.536L97.2834 410.234L143.819 410.234L167.087 450.536L143.819 490.837L97.2834 490.837Z" fill="#FFFCE2" stroke="#EEBB44" stroke-width="6"/>
<path d="M237.283 490.837L214.015 450.536L237.283 410.234L283.819 410.234L307.087 450.536L283.819 490.837L237.283 490.837Z" fill="#FFFCE2" stroke="#EEBB44" stroke-width="6"/>
<path d="M377.283 490.837L354.015 450.536L377.283 410.234L423.819 410.234L447.087 450.536L423.819 490.837L377.283 490.837Z" fill="#FFFCE2" stroke="#EEBB44" stroke-width="6"/>
<path d="M1147.28 530.837L1124.02 490.535L1147.28 450.234L1193.82 450.234L1217.09 490.535L1193.82 530.837L1147.28 530.837Z" fill="#FFFCE2" stroke="#EEBB44" stroke-width="6"/>
<path d="M1287.28 530.837L1264.02 490.535L1287.28 450.234L1333.82 450.234L1357.09 490.535L1333.82 530.837L1287.28 530.837Z" fill="#FFFCE2" stroke="#EEBB44" stroke-width="6"/>
<path d="M27.2834 530.837L4.01549 490.536L27.2834 450.234L73.8193 450.234L97.0873 490.536L73.8193 530.837L27.2834 530.837Z" fill="#FFFCE2" stroke="#EEBB44" stroke-width="6"/>
<path d="M167.283 530.837L144.015 490.536L167.283 450.234L213.819 450.234L237.087 490.536L213.819 530.837L167.283 530.837Z" fill="#FFFCE2" stroke="#EEBB44" stroke-width="6"/>
<path d="M307.283 530.837L284.015 490.536L307.283 450.234L353.819 450.234L377.087 490.536L353.819 530.837L307.283 530.837Z" fill="#FFFCE2" stroke="#EEBB44" stroke-width="6"/>
<path d="M1357.28 570.837L1334.02 530.535L1357.28 490.234L1403.82 490.234L1427.09 530.535L1403.82 570.837L1357.28 570.837Z" fill="#FFFCE2" stroke="#EEBB44" stroke-width="6"/>
<path d="M97.2834 570.837L74.0155 530.536L97.2834 490.234L143.819 490.234L167.087 530.536L143.819 570.837L97.2834 570.837Z" fill="#FFFCE2" stroke="#EEBB44" stroke-width="6"/>
</svg>
