<svg width="60" height="1548" viewBox="0 0 60 1548" fill="none" xmlns="http://www.w3.org/2000/svg">
<g clip-path="url(#clip0_57_622)">
<path d="M48 1548L46.0041 1511.13C43.9592 1474.25 40.0408 1400.72 39 1326.55C37.9592 1253.13 40.0408 1179.27 43.9959 1106.17C48 1032 54 957.825 57 884.725C60 810.872 60 737.45 57 663.275C54 589.745 48 516 43.0041 441.825C37.9592 368.617 34.0408 294.55 34.9959 221.45C36 147.382 42 74.1749 43.0041 -0.00012207C43.9592 -73.7451 40.0408 -147.275 33 -221.45C25.9592 -294.873 16.0408 -368.725 16.9959 -441.825C18 -516 30 -590.175 34.0041 -663.275C37.9592 -737.128 34.0408 -810.55 37.0041 -884.725C40.0408 -958.255 49.9592 -1032 52.0041 -1106.18C54 -1179.38 48 -1253.45 46.0041 -1326.55C43.9592 -1400.62 46.0408 -1473.83 46.9959 -1548C48 -1621.75 48 -1695.28 45 -1769.45C42 -1842.87 36 -1916.73 37.9959 -1989.83C40.0408 -2064 49.9592 -2138.18 48 -2211.28C46.0408 -2285.13 31.9592 -2358.55 25.0041 -2432.73C18 -2506.26 18 -2580 24 -2654.18C30 -2727.38 42 -2801.45 40.9959 -2874.55C40.0408 -2948.62 25.9592 -3021.83 27 -3096C28.0408 -3169.75 43.9592 -3243.28 49.0041 -3317.45C54 -3390.87 48 -3464.73 39 -3537.83C30 -3612 18 -3686.18 12 -3722.73L6 -3759.38H0L0 -3722.62C0 -3685.75 0 -3612 0 -3537.83C0 -3464.62 0 -3390.55 0 -3317.45C0 -3243.38 0 -3170.18 0 -3096C0 -3022.26 0 -2948.73 0 -2874.55C0 -2801.13 0 -2727.28 0 -2654.18C0 -2580 0 -2505.83 0 -2432.73C0 -2358.87 0 -2285.45 0 -2211.28C0 -2137.75 0 -2064 0 -1989.83C0 -1916.62 0 -1842.55 0 -1769.45C0 -1695.38 0 -1622.18 0 -1548C0 -1474.26 0 -1400.73 0 -1326.55C0 -1253.13 0 -1179.28 0 -1106.18C0 -1032 0 -957.825 0 -884.725C0 -810.873 0 -737.45 0 -663.275C0 -589.745 0 -516 0 -441.825C0 -368.618 0 -294.55 0 -221.45C0 -147.383 0 -74.175 0 -0.00012207C0 73.7449 0 147.275 0 221.45C0 294.872 0 368.725 0 441.825C0 516 0 590.175 0 663.275C0 737.127 0 810.55 0 884.725C0 958.255 0 1032 0 1106.17C0 1179.38 0 1253.45 0 1326.55C0 1400.62 0 1473.82 0 1511.45V1548H48Z" fill="url(#paint0_linear_57_622)"/>
<path opacity="0.9" d="M24 1548L25.9959 1511.13C28.0408 1474.25 31.9592 1400.72 30 1326.55C28.0408 1253.13 19.9592 1179.27 16.9959 1106.17C13.9592 1032 16.0408 957.825 21 884.725C25.9592 810.872 34.0408 737.45 40.0041 663.275C46.0408 589.745 49.9592 516 46.9959 441.825C43.9592 368.617 34.0408 294.55 28.0041 221.45C22.0408 147.382 19.9592 74.1749 21 -0.00012207C22.0408 -73.7451 25.9592 -147.275 33 -221.45C40.0408 -294.873 49.9592 -368.725 49.0041 -441.825C48 -516 36 -590.175 30 -663.275C24 -737.128 24 -810.55 30 -884.725C36 -958.255 48 -1032 49.0041 -1106.18C49.9592 -1179.38 40.0408 -1253.45 37.0041 -1326.55C34.0408 -1400.62 37.9592 -1473.83 43.0041 -1548C48 -1621.75 54 -1695.28 55.9959 -1769.45C58.0408 -1842.87 55.9592 -1916.73 46.9959 -1989.83C37.9592 -2064 22.0408 -2138.18 22.0041 -2211.28C22.0408 -2285.13 37.9592 -2358.55 46.0041 -2432.73C54 -2506.26 54 -2580 51 -2654.18C48 -2727.38 42 -2801.45 39 -2874.55C36 -2948.62 36 -3021.83 34.9959 -3096C34.0408 -3169.75 31.9592 -3243.28 31.9959 -3317.45C31.9592 -3390.87 34.0408 -3464.73 37.9959 -3537.83C42 -3612 48 -3686.18 51 -3722.73L54 -3759.38H1.14441e-05L1.14441e-05 -3722.62C1.14441e-05 -3685.75 1.14441e-05 -3612 1.14441e-05 -3537.83C1.14441e-05 -3464.62 1.14441e-05 -3390.55 1.14441e-05 -3317.45C1.14441e-05 -3243.38 1.14441e-05 -3170.18 1.14441e-05 -3096C1.14441e-05 -3022.26 1.14441e-05 -2948.73 1.14441e-05 -2874.55C1.14441e-05 -2801.13 1.14441e-05 -2727.28 1.14441e-05 -2654.18C1.14441e-05 -2580 1.14441e-05 -2505.83 1.14441e-05 -2432.73C1.14441e-05 -2358.87 1.14441e-05 -2285.45 1.14441e-05 -2211.28C1.14441e-05 -2137.75 1.14441e-05 -2064 1.14441e-05 -1989.83C1.14441e-05 -1916.62 1.14441e-05 -1842.55 1.14441e-05 -1769.45C1.14441e-05 -1695.38 1.14441e-05 -1622.18 1.14441e-05 -1548C1.14441e-05 -1474.26 1.14441e-05 -1400.73 1.14441e-05 -1326.55C1.14441e-05 -1253.13 1.14441e-05 -1179.28 1.14441e-05 -1106.18C1.14441e-05 -1032 1.14441e-05 -957.825 1.14441e-05 -884.725C1.14441e-05 -810.873 1.14441e-05 -737.45 1.14441e-05 -663.275C1.14441e-05 -589.745 1.14441e-05 -516 1.14441e-05 -441.825C1.14441e-05 -368.618 1.14441e-05 -294.55 1.14441e-05 -221.45C1.14441e-05 -147.383 1.14441e-05 -74.175 1.14441e-05 -0.00012207C1.14441e-05 73.7449 1.14441e-05 147.275 1.14441e-05 221.45C1.14441e-05 294.872 1.14441e-05 368.725 1.14441e-05 441.825C1.14441e-05 516 1.14441e-05 590.175 1.14441e-05 663.275C1.14441e-05 737.127 1.14441e-05 810.55 1.14441e-05 884.725C1.14441e-05 958.255 1.14441e-05 1032 1.14441e-05 1106.17C1.14441e-05 1179.38 1.14441e-05 1253.45 1.14441e-05 1326.55C1.14441e-05 1400.62 1.14441e-05 1473.82 1.14441e-05 1511.45V1548H24Z" fill="url(#paint1_linear_57_622)"/>
<path opacity="0.8" d="M12.0001 1548L13.996 1511.13C16.0409 1474.25 19.9592 1400.72 25.0041 1326.55C30.0001 1253.13 36.0001 1179.27 40.996 1106.17C46.0409 1032 49.9592 957.825 52.0041 884.725C54.0001 810.872 54.0001 737.45 49.0041 663.275C43.9592 589.745 34.0409 516 34.0041 441.825C34.0409 368.617 43.9592 294.55 42.0001 221.45C40.0409 147.382 25.9592 74.1749 22.0041 -0.00012207C18.0001 -73.7451 24 -147.275 25.996 -221.45C28.0409 -294.873 25.9592 -368.725 31.0041 -441.825C36 -516 48.0001 -590.175 49.996 -663.275C52.0409 -737.128 43.9592 -810.55 39.0001 -884.725C34.0409 -958.255 31.9592 -1032 31.0041 -1106.18C30 -1179.38 30 -1253.45 27 -1326.55C24 -1400.62 18 -1473.83 19.996 -1548C22.0409 -1621.75 31.9592 -1695.28 31.996 -1769.45C31.9592 -1842.87 22.0409 -1916.73 16.996 -1989.83C12 -2064 12 -2138.18 19.996 -2211.28C28.0409 -2285.13 43.9592 -2358.55 45.0001 -2432.73C46.0409 -2506.26 31.9592 -2580 30 -2654.18C28.0409 -2727.38 37.9592 -2801.45 37.996 -2874.55C37.9592 -2948.62 28.0409 -3021.83 27 -3096C25.9592 -3169.75 34.0409 -3243.28 31.996 -3317.45C30.0001 -3390.87 18.0001 -3464.73 15.0001 -3537.83C12.0001 -3612 18.0001 -3686.18 21.0001 -3722.73L24 -3759.38H5.34058e-05L5.34058e-05 -3722.62C5.34058e-05 -3685.75 5.34058e-05 -3612 5.34058e-05 -3537.83C5.34058e-05 -3464.62 5.34058e-05 -3390.55 5.34058e-05 -3317.45C5.34058e-05 -3243.38 5.34058e-05 -3170.18 5.34058e-05 -3096C5.34058e-05 -3022.26 5.34058e-05 -2948.73 5.34058e-05 -2874.55C5.34058e-05 -2801.13 5.34058e-05 -2727.28 5.34058e-05 -2654.18C5.34058e-05 -2580 5.34058e-05 -2505.83 5.34058e-05 -2432.73C5.34058e-05 -2358.87 5.34058e-05 -2285.45 5.34058e-05 -2211.28C5.34058e-05 -2137.75 5.34058e-05 -2064 5.34058e-05 -1989.83C5.34058e-05 -1916.62 5.34058e-05 -1842.55 5.34058e-05 -1769.45C5.34058e-05 -1695.38 5.34058e-05 -1622.18 5.34058e-05 -1548C5.34058e-05 -1474.26 5.34058e-05 -1400.73 5.34058e-05 -1326.55C5.34058e-05 -1253.13 5.34058e-05 -1179.28 5.34058e-05 -1106.18C5.34058e-05 -1032 5.34058e-05 -957.825 5.34058e-05 -884.725C5.34058e-05 -810.873 5.34058e-05 -737.45 5.34058e-05 -663.275C5.34058e-05 -589.745 5.34058e-05 -516 5.34058e-05 -441.825C5.34058e-05 -368.618 5.34058e-05 -294.55 5.34058e-05 -221.45C5.34058e-05 -147.383 5.34058e-05 -74.175 5.34058e-05 -0.00012207C5.34058e-05 73.7449 5.34058e-05 147.275 5.34058e-05 221.45C5.34058e-05 294.872 5.34058e-05 368.725 5.34058e-05 441.825C5.34058e-05 516 5.34058e-05 590.175 5.34058e-05 663.275C5.34058e-05 737.127 5.34058e-05 810.55 5.34058e-05 884.725C5.34058e-05 958.255 5.34058e-05 1032 5.34058e-05 1106.17C5.34058e-05 1179.38 5.34058e-05 1253.45 5.34058e-05 1326.55C5.34058e-05 1400.62 5.34058e-05 1473.82 5.34058e-05 1511.45V1548H12.0001Z" fill="url(#paint2_linear_57_622)"/>
</g>
<defs>
<linearGradient id="paint0_linear_57_622" x1="0" y1="1548" x2="59.25" y2="1548" gradientUnits="userSpaceOnUse">
<stop stop-color="var(--background, #EEBB44)"/>
<stop offset="1" stop-color="var(--background, #BC9538)"/>
</linearGradient>
<linearGradient id="paint1_linear_57_622" x1="1.14441e-05" y1="1548" x2="56.7185" y2="1548" gradientUnits="userSpaceOnUse">
<stop stop-color="var(--background, #EEBB44)"/>
<stop offset="1" stop-color="var(--background, #BC9538)"/>
</linearGradient>
<linearGradient id="paint2_linear_57_622" x1="5.34058e-05" y1="1548" x2="53.2507" y2="1548" gradientUnits="userSpaceOnUse">
<stop stop-color="var(--background, #EEBB44)"/>
<stop offset="1" stop-color="var(--background, #EEBB44)"/>
</linearGradient>
<clipPath id="clip0_57_622">
<rect width="1548" height="60" fill="white" transform="matrix(0 -1 -1 0 60 1548)"/>
</clipPath>
</defs>
</svg>
