<svg width="60" height="1548" viewBox="0 0 60 1548" fill="none" xmlns="http://www.w3.org/2000/svg">
<g clip-path="url(#clip0_57_626)">
<path d="M12 0L13.9959 36.8725C16.0408 73.745 19.9592 147.275 21 221.45C22.0408 294.873 19.9592 368.725 16.0041 441.825C12 516 6 590.175 3 663.275C0 737.128 0 810.55 3 884.725C6 958.255 12 1032 16.9959 1106.18C22.0408 1179.38 25.9592 1253.45 25.0041 1326.55C24 1400.62 18 1473.83 16.9959 1548C16.0408 1621.75 19.9592 1695.28 27 1769.45C34.0408 1842.87 43.9592 1916.73 43.0041 1989.83C42 2064 30 2138.18 25.9959 2211.28C22.0408 2285.13 25.9592 2358.55 22.9959 2432.73C19.9592 2506.26 10.0408 2580 7.99592 2654.18C6 2727.38 12 2801.45 13.9959 2874.55C16.0408 2948.62 13.9592 3021.83 13.0041 3096C12 3169.75 12 3243.28 15 3317.45C18 3390.87 24 3464.73 22.0041 3537.83C19.9592 3612 10.0408 3686.18 12 3759.28C13.9592 3833.13 28.0408 3906.55 34.9959 3980.73C42 4054.26 42 4128 36 4202.18C30 4275.38 18 4349.45 19.0041 4422.55C19.9592 4496.62 34.0408 4569.83 33 4644C31.9592 4717.75 16.0408 4791.28 10.9959 4865.45C6 4938.87 12 5012.73 21 5085.83C30 5160 42 5234.18 48 5270.73L54 5307.38H60L60 5270.62C60 5233.75 60 5160 60 5085.83C60 5012.62 60 4938.55 60 4865.45C60 4791.38 60 4718.18 60 4644C60 4570.26 60 4496.73 60 4422.55C60 4349.13 60 4275.28 60 4202.18C60 4128 60 4053.83 60 3980.73C60 3906.87 60 3833.45 60 3759.28C60 3685.75 60 3612 60 3537.83C60 3464.62 60 3390.55 60 3317.45C60 3243.38 60 3170.18 60 3096C60 3022.26 60 2948.73 60 2874.55C60 2801.13 60 2727.28 60 2654.18C60 2580 60 2505.83 60 2432.73C60 2358.87 60 2285.45 60 2211.28C60 2137.75 60 2064 60 1989.83C60 1916.62 60 1842.55 60 1769.45C60 1695.38 60 1622.18 60 1548C60 1474.26 60 1400.73 60 1326.55C60 1253.13 60 1179.28 60 1106.18C60 1032 60 957.825 60 884.725C60 810.873 60 737.45 60 663.275C60 589.745 60 516 60 441.825C60 368.618 60 294.55 60 221.45C60 147.383 60 74.175 60 36.55V0L12 0Z" fill="url(#paint0_linear_57_626)"/>
<path opacity="0.9" d="M36 0L34.0041 36.8725C31.9592 73.745 28.0408 147.275 30 221.45C31.9592 294.873 40.0408 368.725 43.0041 441.825C46.0408 516 43.9592 590.175 39 663.275C34.0408 737.128 25.9592 810.55 19.9959 884.725C13.9592 958.255 10.0408 1032 13.0041 1106.18C16.0408 1179.38 25.9592 1253.45 31.9959 1326.55C37.9592 1400.62 40.0408 1473.83 39 1548C37.9592 1621.75 34.0408 1695.28 27 1769.45C19.9592 1842.87 10.0408 1916.73 10.9959 1989.83C12 2064 24 2138.18 30 2211.28C36 2285.13 36 2358.55 30 2432.73C24 2506.26 12 2580 10.9959 2654.18C10.0408 2727.38 19.9592 2801.45 22.9959 2874.55C25.9592 2948.62 22.0408 3021.83 16.9959 3096C12 3169.75 5.99999 3243.28 4.00407 3317.45C1.95917 3390.87 4.04081 3464.73 13.0041 3537.83C22.0408 3612 37.9592 3686.18 37.9959 3759.28C37.9592 3833.13 22.0408 3906.55 13.9959 3980.73C5.99999 4054.26 5.99999 4128 8.99999 4202.18C12 4275.38 18 4349.45 21 4422.55C24 4496.62 24 4569.83 25.0041 4644C25.9592 4717.75 28.0408 4791.28 28.0041 4865.45C28.0408 4938.87 25.9592 5012.73 22.0041 5085.83C18 5160 12 5234.18 8.99999 5270.73L5.99999 5307.38H60L60 5270.62C60 5233.75 60 5160 60 5085.83C60 5012.62 60 4938.55 60 4865.45C60 4791.38 60 4718.18 60 4644C60 4570.26 60 4496.73 60 4422.55C60 4349.13 60 4275.28 60 4202.18C60 4128 60 4053.83 60 3980.73C60 3906.87 60 3833.45 60 3759.28C60 3685.75 60 3612 60 3537.83C60 3464.62 60 3390.55 60 3317.45C60 3243.38 60 3170.18 60 3096C60 3022.26 60 2948.73 60 2874.55C60 2801.13 60 2727.28 60 2654.18C60 2580 60 2505.83 60 2432.73C60 2358.87 60 2285.45 60 2211.28C60 2137.75 60 2064 60 1989.83C60 1916.62 60 1842.55 60 1769.45C60 1695.38 60 1622.18 60 1548C60 1474.26 60 1400.73 60 1326.55C60 1253.13 60 1179.28 60 1106.18C60 1032 60 957.825 60 884.725C60 810.873 60 737.45 60 663.275C60 589.745 60 516 60 441.825C60 368.618 60 294.55 60 221.45C60 147.383 60 74.175 60 36.55V0L36 0Z" fill="url(#paint1_linear_57_626)"/>
<path opacity="0.8" d="M48 0L46.0041 36.8725C43.9592 73.745 40.0408 147.275 34.9959 221.45C30 294.873 24 368.725 19.0041 441.825C13.9592 516 10.0408 590.175 7.99593 663.275C6.00001 737.128 6.00001 810.55 10.9959 884.725C16.0408 958.255 25.9592 1032 25.9959 1106.18C25.9592 1179.38 16.0408 1253.45 18 1326.55C19.9592 1400.62 34.0408 1473.83 37.9959 1548C42 1621.75 36 1695.28 34.0041 1769.45C31.9592 1842.87 34.0408 1916.73 28.9959 1989.83C24 2064 12 2138.18 10.0041 2211.28C7.95919 2285.13 16.0408 2358.55 21 2432.73C25.9592 2506.26 28.0408 2580 28.9959 2654.18C30 2727.38 30 2801.45 33 2874.55C36 2948.62 42 3021.83 40.0041 3096C37.9592 3169.75 28.0408 3243.28 28.0041 3317.45C28.0408 3390.87 37.9592 3464.73 43.0041 3537.83C48 3612 48 3686.18 40.0041 3759.28C31.9592 3833.13 16.0408 3906.55 15 3980.73C13.9592 4054.26 28.0408 4128 30 4202.18C31.9592 4275.38 22.0408 4349.45 22.0041 4422.55C22.0408 4496.62 31.9592 4569.83 33 4644C34.0408 4717.75 25.9592 4791.28 28.0041 4865.45C30 4938.87 42 5012.73 45 5085.83C48 5160 42 5234.18 39 5270.73L36 5307.38H60L60 5270.62C60 5233.75 60 5160 60 5085.83C60 5012.62 60 4938.55 60 4865.45C60 4791.38 60 4718.18 60 4644C60 4570.26 60 4496.73 60 4422.55C60 4349.13 60 4275.28 60 4202.18C60 4128 60 4053.83 60 3980.73C60 3906.87 60 3833.45 60 3759.28C60 3685.75 60 3612 60 3537.83C60 3464.62 60 3390.55 60 3317.45C60 3243.38 60 3170.18 60 3096C60 3022.26 60 2948.73 60 2874.55C60 2801.13 60 2727.28 60 2654.18C60 2580 60 2505.83 60 2432.73C60 2358.87 60 2285.45 60 2211.28C60 2137.75 60 2064 60 1989.83C60 1916.62 60 1842.55 60 1769.45C60 1695.38 60 1622.18 60 1548C60 1474.26 60 1400.73 60 1326.55C60 1253.13 60 1179.28 60 1106.18C60 1032 60 957.825 60 884.725C60 810.873 60 737.45 60 663.275C60 589.745 60 516 60 441.825C60 368.618 60 294.55 60 221.45C60 147.383 60 74.175 60 36.55V0L48 0Z" fill="url(#paint2_linear_57_626)"/>
</g>
<defs>
<linearGradient id="paint0_linear_57_626" x1="60" y1="0" x2="0.75" y2="0" gradientUnits="userSpaceOnUse">
<stop stop-color="var(--background, #EEBB44)"/>
<stop offset="1" stop-color="var(--background, #BC9538)"/>
</linearGradient>
<linearGradient id="paint1_linear_57_626" x1="60" y1="0" x2="3.28149" y2="0" gradientUnits="userSpaceOnUse">
<stop stop-color="var(--background, #EEBB44)"/>
<stop offset="1" stop-color="var(--background, #BC9538)"/>
</linearGradient>
<linearGradient id="paint2_linear_57_626" x1="60" y1="0" x2="6.74933" y2="0" gradientUnits="userSpaceOnUse">
<stop stop-color="var(--background, #EEBB44)"/>
<stop offset="1" stop-color="var(--background, #EEBB44)"/>
</linearGradient>
<clipPath id="clip0_57_626">
<rect width="1548" height="60" fill="white" transform="matrix(0 1 1 0 0 0)"/>
</clipPath>
</defs>
</svg>
